<?xml version="1.0" encoding="UTF-8"?>
<svg id="Capa_1" xmlns="http://www.w3.org/2000/svg" xmlns:xlink="http://www.w3.org/1999/xlink" version="1.1" viewBox="0 0 300 300">
  <!-- Generator: Adobe Illustrator 29.6.1, SVG Export Plug-In . SVG Version: 2.1.1 Build 9)  -->
  <defs>
    <style>
      .st0 {
        fill: #fff;
      }

      .st1 {
        clip-path: url(#clippath);
      }
    </style>
    <clipPath id="clippath">
      <path class="st0" d="M230.36,91.58h37.68c5.46,0,9.89,4.43,9.89,9.89h0c0,22.02-28.89,40.14-54.1,46.26-2.26.55-2.26,3.75,0,4.3,25.21,6.02,54.1,24.36,54.1,46.38h0c0,5.46-4.43,9.89-9.89,9.89h-37.68s-22,0-22,0v22.14s0,37.68,0,37.68c0,5.46-4.43,9.89-9.89,9.89h0c-22.02,0-40.14-28.89-46.26-54.1-.55-2.26-3.75-2.26-4.3,0-6.02,25.21-24.36,54.1-46.38,54.1h0c-5.46,0-9.89-4.43-9.89-9.89v-37.68s0-22,0-22H31.96c-5.46,0-9.89-4.43-9.89-9.89h0c0-22.02,28.89-40.14,54.1-46.26,2.26-.55,2.26-3.75,0-4.3-25.21-6.02-54.1-24.36-54.1-46.38h0c0-5.46,4.43-9.89,9.89-9.89h59.69V31.89c0-5.46,4.43-9.89,9.89-9.89h0c22.02,0,40.14,28.89,46.26,54.1.55,2.26,3.75,2.26,4.3,0,6.02-25.21,24.36-54.1,46.38-54.1h0c5.46,0,9.89,4.43,9.89,9.89v59.69h22ZM230.36,69.58V31.89c0-17.58-14.31-31.89-31.89-31.89s-34.95,10.05-48.47,28.49C136.49,10.05,119.5,0,101.54,0s-31.89,14.31-31.89,31.89v37.82H31.96C14.38,69.71.07,84.02.07,101.61s10.05,34.95,28.49,48.47C10.12,163.58.07,180.57.07,198.54s14.31,31.89,31.89,31.89h37.68,0s0,37.68,0,37.68c0,17.58,14.31,31.89,31.89,31.89,17.96,0,34.95-10.05,48.47-28.49,13.51,18.44,30.5,28.49,48.47,28.49,17.58,0,31.89-14.31,31.89-31.89v-37.82s37.68,0,37.68,0c17.58,0,31.89-14.31,31.89-31.89,0-17.96-10.05-34.95-28.49-48.47,18.44-13.51,28.49-30.5,28.49-48.47,0-17.58-14.31-31.89-31.89-31.89h-37.68"/>
    </clipPath>
  </defs>
  <path class="st0" d="M230.36,91.58h37.68c5.46,0,9.89,4.43,9.89,9.89h0c0,22.02-28.89,40.14-54.1,46.26-2.26.55-2.26,3.75,0,4.3,25.21,6.02,54.1,24.36,54.1,46.38h0c0,5.46-4.43,9.89-9.89,9.89h-37.68s-22,0-22,0v22.14s0,37.68,0,37.68c0,5.46-4.43,9.89-9.89,9.89h0c-22.02,0-40.14-28.89-46.26-54.1-.55-2.26-3.75-2.26-4.3,0-6.02,25.21-24.36,54.1-46.38,54.1h0c-5.46,0-9.89-4.43-9.89-9.89v-37.68s0-22,0-22H31.96c-5.46,0-9.89-4.43-9.89-9.89h0c0-22.02,28.89-40.14,54.1-46.26,2.26-.55,2.26-3.75,0-4.3-25.21-6.02-54.1-24.36-54.1-46.38h0c0-5.46,4.43-9.89,9.89-9.89h59.69V31.89c0-5.46,4.43-9.89,9.89-9.89h0c22.02,0,40.14,28.89,46.26,54.1.55,2.26,3.75,2.26,4.3,0,6.02-25.21,24.36-54.1,46.38-54.1h0c5.46,0,9.89,4.43,9.89,9.89v59.69h22ZM230.36,69.58V31.89c0-17.58-14.31-31.89-31.89-31.89s-34.95,10.05-48.47,28.49C136.49,10.05,119.5,0,101.54,0s-31.89,14.31-31.89,31.89v37.82H31.96C14.38,69.71.07,84.02.07,101.61s10.05,34.95,28.49,48.47C10.12,163.58.07,180.57.07,198.54s14.31,31.89,31.89,31.89h37.68,0s0,37.68,0,37.68c0,17.58,14.31,31.89,31.89,31.89,17.96,0,34.95-10.05,48.47-28.49,13.51,18.44,30.5,28.49,48.47,28.49,17.58,0,31.89-14.31,31.89-31.89v-37.82s37.68,0,37.68,0c17.58,0,31.89-14.31,31.89-31.89,0-17.96-10.05-34.95-28.49-48.47,18.44-13.51,28.49-30.5,28.49-48.47,0-17.58-14.31-31.89-31.89-31.89h-37.68"/>
  <g class="st1">
    <circle class="st0" cx="150" cy="150" r="189.3"/>
  </g>
</svg>